# Blender 4.4.0
# www.blender.org
mtllib gold.mtl
o Cube
v -1.795182 -0.000001 -2.493587
v 0.341290 -0.000001 -2.493587
v -1.555057 0.989974 3.701049
v -1.675120 0.957803 3.821111
v -1.763012 0.869911 3.909003
v -1.555057 0.989973 -2.253463
v -1.795182 0.749848 -2.493587
v -1.675120 0.957802 -2.373525
v -1.763012 0.869910 -2.461417
v 0.101166 0.989974 3.701049
v 0.221228 0.957803 3.821111
v 0.309120 0.869911 3.909003
v 0.101166 0.989973 -2.253463
v 0.341290 0.749848 -2.493587
v 0.221228 0.957802 -2.373525
v 0.309120 0.869910 -2.461417
v -1.594273 0.000001 3.941174
v -1.795182 0.000000 3.740264
v -1.694728 0.000001 3.914257
v -1.768265 0.000001 3.840719
v 0.341290 0.000000 3.740264
v 0.140381 0.000001 3.941174
v 0.314374 0.000001 3.840719
v 0.240836 0.000001 3.914257
v -1.795182 0.749849 3.740264
v -1.594273 0.749849 3.941174
v -1.763024 0.869864 3.909016
v -1.768265 0.749849 3.840719
v -1.694728 0.749849 3.914257
v 0.140381 0.749849 3.941174
v 0.341290 0.749849 3.740264
v 0.309132 0.869864 3.909016
v 0.240836 0.749849 3.914257
v 0.314374 0.749849 3.840719
vn -0.0000 1.0000 -0.0000
vn -0.0000 0.2588 0.9659
vn 1.0000 -0.0000 -0.0000
vn -0.0000 -0.0000 1.0000
vn -0.0000 -0.0000 -1.0000
vn -0.2588 0.9659 -0.0000
vn -0.7071 0.7071 -0.0000
vn 0.9659 0.2588 -0.0000
vn -0.0000 0.9659 -0.2588
vn -0.0000 0.7071 -0.7071
vn -0.0000 0.2588 -0.9659
vn 0.2588 0.9659 -0.0000
vn 0.7071 0.7071 -0.0000
vn -0.0000 0.9659 0.2588
vn -0.0000 0.7071 0.7071
vn -0.9659 0.2588 -0.0000
vn -1.0000 -0.0000 -0.0000
vn -0.9606 -0.1045 0.2574
vn -0.6628 -0.3483 0.6628
vn -0.2574 -0.1045 0.9606
vn 0.2574 -0.1045 0.9606
vn 0.6628 -0.3483 0.6628
vn 0.9606 -0.1045 0.2574
vn 0.9659 -0.0000 0.2588
vn 0.7071 -0.0000 0.7071
vn 0.2588 -0.0000 0.9659
vn -0.9659 -0.0000 0.2588
vn -0.7071 -0.0000 0.7071
vn -0.2588 -0.0000 0.9659
vn -0.0000 -1.0000 -0.0000
vt 0.653098 0.509329
vt 0.846902 0.509329
vt 0.846902 0.740671
vt 0.653098 0.740671
vt 0.594680 0.753765
vt 0.594680 0.996236
vt 0.594669 0.996237
vt 0.564361 0.976491
vt 0.564361 0.773509
vt 0.594669 0.753763
vt 0.375000 0.500000
vt 0.564361 0.500000
vt 0.564361 0.742194
vt 0.375000 0.742194
vt 0.375000 0.773509
vt 0.375000 0.976491
vt 0.375000 0.250000
vt 0.564361 0.250000
vt 0.860951 0.504665
vt 0.860951 0.745335
vt 0.875000 0.501250
vt 0.875000 0.748750
vt 0.594680 0.501250
vt 0.594680 0.748750
vt 0.594669 0.748751
vt 0.564361 0.742194
vt 0.639049 0.504665
vt 0.628764 0.500000
vt 0.871236 0.500000
vt 0.594680 0.253764
vt 0.594680 0.496236
vt 0.639049 0.745335
vt 0.871235 0.750000
vt 0.628764 0.750000
vt 0.594680 0.001250
vt 0.594680 0.248750
vt 0.564361 0.007806
vt 0.594669 0.001249
vt 0.375000 0.007806
vt 0.564361 0.007806
vt 0.564361 0.003903
vt 0.594669 0.001249
vt 0.571897 0.000311
vt 0.576248 0.000490
vt 0.564361 0.761755
vt 0.594669 0.753763
vt 0.571897 0.750936
vt 0.576248 0.751476
vt 0.564361 0.746097
vt 0.375000 0.746097
vt 0.564361 0.761755
vt 0.375000 0.761755
vt 0.375000 0.003903
vt 0.564361 0.003903
vt 0.375000 0.000000
vt 0.564361 0.000000
vt 0.564361 0.988245
vt 0.375000 0.988245
vt 0.125000 0.500000
vt 0.375000 0.742194
vt 0.371850 0.746097
vt 0.363245 0.748954
vt 0.351491 0.750000
vt 0.148509 0.750000
vt 0.136755 0.748954
vt 0.128150 0.746097
vt 0.125000 0.742194
s 1
usemtl Material.001
f 13/1/1 6/2/1 3/3/1 10/4/1
f 12/5/2 5/6/2 27/7/2 26/8/2 30/9/2 32/10/2
f 2/11/3 14/12/3 31/13/3 21/14/3
f 22/15/4 30/9/4 26/8/4 17/16/4
f 1/17/5 7/18/5 14/12/5 2/11/5
f 3/3/6 6/2/6 8/19/6 4/20/6
f 4/20/7 8/19/7 9/21/7 5/22/7
f 16/23/8 12/24/8 32/25/8 31/26/8 14/12/8
f 6/2/9 13/1/9 15/27/9 8/19/9
f 8/19/10 15/27/10 16/28/10 9/29/10
f 9/30/11 16/31/11 14/12/11 7/18/11
f 13/1/12 10/4/12 11/32/12 15/27/12
f 15/27/13 11/32/13 12/24/13 16/23/13
f 10/4/14 3/3/14 4/20/14 11/32/14
f 11/32/15 4/20/15 5/33/15 12/34/15
f 5/35/16 9/36/16 7/18/16 25/37/16 27/38/16
f 18/39/17 25/40/17 7/18/17 1/17/17
f 25/37/18 28/41/18 27/42/18
f 28/41/19 29/43/19 27/42/19
f 29/43/20 26/44/20 27/42/20
f 30/9/21 33/45/21 32/46/21
f 33/45/22 34/47/22 32/46/22
f 34/47/23 31/48/23 32/46/23
f 21/14/24 31/13/24 34/49/24 23/50/24
f 23/50/25 34/49/25 33/51/25 24/52/25
f 24/52/26 33/51/26 30/9/26 22/15/26
f 25/40/27 18/39/27 20/53/27 28/54/27
f 28/54/28 20/53/28 19/55/28 29/56/28
f 29/57/29 19/58/29 17/16/29 26/8/29
f 1/59/30 2/11/30 21/60/30 23/61/30 24/62/30 22/63/30 17/64/30 19/65/30 20/66/30 18/67/30
o Cube.001
v 0.405058 -0.000001 -2.493587
v 2.541531 -0.000001 -2.493587
v 0.645183 0.989974 3.701049
v 0.525121 0.957803 3.821111
v 0.437229 0.869911 3.909003
v 0.645183 0.989973 -2.253463
v 0.405058 0.749848 -2.493587
v 0.525121 0.957802 -2.373525
v 0.437229 0.869910 -2.461417
v 2.301406 0.989974 3.701049
v 2.421469 0.957803 3.821111
v 2.509360 0.869911 3.909003
v 2.301406 0.989973 -2.253463
v 2.541531 0.749848 -2.493587
v 2.421469 0.957802 -2.373525
v 2.509360 0.869910 -2.461417
v 0.575616 0.000001 3.941174
v 0.405058 0.000001 3.770616
v 0.490337 0.000001 3.918323
v 0.427909 0.000001 3.855895
v 2.541531 0.000001 3.770616
v 2.370973 0.000001 3.941174
v 2.518681 0.000001 3.855895
v 2.456252 0.000001 3.918323
v 0.405058 0.749849 3.770616
v 0.575616 0.749849 3.941174
v 0.437216 0.869864 3.909016
v 0.427909 0.749849 3.855895
v 0.490337 0.749849 3.918323
v 2.370973 0.749849 3.941174
v 2.541531 0.749849 3.770616
v 2.509373 0.869864 3.909016
v 2.456252 0.749849 3.918323
v 2.518681 0.749849 3.855895
vn -0.0000 1.0000 -0.0000
vn -0.0000 0.2588 0.9659
vn 1.0000 -0.0000 -0.0000
vn -0.0000 -0.0000 1.0000
vn -0.0000 -0.0000 -1.0000
vn -0.2588 0.9659 -0.0000
vn -0.7071 0.7071 -0.0000
vn 0.9659 0.2588 -0.0000
vn -0.0000 0.9659 -0.2588
vn -0.0000 0.7071 -0.7071
vn -0.0000 0.2588 -0.9659
vn 0.2588 0.9659 -0.0000
vn 0.7071 0.7071 -0.0000
vn -0.0000 0.9659 0.2588
vn -0.0000 0.7071 0.7071
vn -0.9659 0.2588 -0.0000
vn -1.0000 -0.0000 -0.0000
vn -0.9652 -0.0396 0.2586
vn -0.6847 -0.2499 0.6847
vn -0.2586 -0.0396 0.9652
vn 0.2586 -0.0396 0.9652
vn 0.6847 -0.2499 0.6847
vn 0.9652 -0.0396 0.2586
vn 0.9659 -0.0000 0.2588
vn 0.7071 -0.0000 0.7071
vn 0.2588 -0.0000 0.9659
vn -0.9659 -0.0000 0.2588
vn -0.7071 -0.0000 0.7071
vn -0.2588 -0.0000 0.9659
vn -0.0000 -1.0000 -0.0000
vt 0.653098 0.509329
vt 0.846902 0.509329
vt 0.846902 0.740671
vt 0.653098 0.740671
vt 0.594680 0.753765
vt 0.594680 0.996236
vt 0.594669 0.996237
vt 0.564361 0.980042
vt 0.564361 0.769958
vt 0.594669 0.753763
vt 0.375000 0.500000
vt 0.564361 0.500000
vt 0.564361 0.743374
vt 0.375000 0.743374
vt 0.375000 0.769958
vt 0.564361 0.769958
vt 0.564361 0.980042
vt 0.375000 0.980042
vt 0.375000 0.250000
vt 0.564361 0.250000
vt 0.860951 0.504665
vt 0.860951 0.745335
vt 0.875000 0.501250
vt 0.875000 0.748750
vt 0.594680 0.501250
vt 0.594680 0.748750
vt 0.594669 0.748751
vt 0.639049 0.504665
vt 0.628764 0.500000
vt 0.871236 0.500000
vt 0.594680 0.253764
vt 0.594680 0.496236
vt 0.639049 0.745335
vt 0.871235 0.750000
vt 0.628764 0.750000
vt 0.594680 0.001250
vt 0.594680 0.248750
vt 0.564361 0.006626
vt 0.594669 0.001249
vt 0.375000 0.006626
vt 0.564361 0.006626
vt 0.564361 0.003313
vt 0.594669 0.001249
vt 0.570759 0.000264
vt 0.574453 0.000416
vt 0.564361 0.759979
vt 0.594669 0.753763
vt 0.570759 0.750794
vt 0.574453 0.751253
vt 0.564361 0.746687
vt 0.375000 0.746687
vt 0.375000 0.759979
vt 0.375000 0.003313
vt 0.564361 0.003313
vt 0.375000 0.000000
vt 0.564361 0.000000
vt 0.564361 0.990021
vt 0.375000 0.990021
vt 0.125000 0.500000
vt 0.372326 0.746687
vt 0.365021 0.749112
vt 0.355042 0.750000
vt 0.144958 0.750000
vt 0.134979 0.749112
vt 0.127674 0.746687
vt 0.125000 0.743374
s 1
usemtl Material.001
f 47/68/31 40/69/31 37/70/31 44/71/31
f 46/72/32 39/73/32 61/74/32 60/75/32 64/76/32 66/77/32
f 36/78/33 48/79/33 65/80/33 55/81/33
f 56/82/34 64/83/34 60/84/34 51/85/34
f 35/86/35 41/87/35 48/79/35 36/78/35
f 37/70/36 40/69/36 42/88/36 38/89/36
f 38/89/37 42/88/37 43/90/37 39/91/37
f 50/92/38 46/93/38 66/94/38 65/80/38 48/79/38
f 40/69/39 47/68/39 49/95/39 42/88/39
f 42/88/40 49/95/40 50/96/40 43/97/40
f 43/98/41 50/99/41 48/79/41 41/87/41
f 47/68/42 44/71/42 45/100/42 49/95/42
f 49/95/43 45/100/43 46/93/43 50/92/43
f 44/71/44 37/70/44 38/89/44 45/100/44
f 45/100/45 38/89/45 39/101/45 46/102/45
f 39/103/46 43/104/46 41/87/46 59/105/46 61/106/46
f 52/107/47 59/108/47 41/87/47 35/86/47
f 59/105/48 62/109/48 61/110/48
f 62/109/49 63/111/49 61/110/49
f 63/111/50 60/112/50 61/110/50
f 64/76/51 67/113/51 66/114/51
f 67/113/52 68/115/52 66/114/52
f 68/115/53 65/116/53 66/114/53
f 55/81/54 65/80/54 68/117/54 57/118/54
f 57/118/55 68/117/55 67/113/55 58/119/55
f 58/119/56 67/113/56 64/83/56 56/82/56
f 59/108/57 52/107/57 54/120/57 62/121/57
f 62/121/58 54/120/58 53/122/58 63/123/58
f 63/124/59 53/125/59 51/85/59 60/84/59
f 35/126/60 36/78/60 55/81/60 57/127/60 58/128/60 56/129/60 51/130/60 53/131/60 54/132/60 52/133/60
o Cube.002
v -4.003263 -0.000001 -2.493587
v -1.866791 0.000001 3.941174
v -1.866791 -0.000001 -2.493587
v -3.763139 0.989974 3.701049
v -3.883201 0.957803 3.821111
v -3.971093 0.869911 3.909003
v -3.763139 0.989973 -2.253463
v -4.003263 0.749848 -2.493587
v -3.883201 0.957802 -2.373525
v -3.971093 0.869910 -2.461417
v -2.106915 0.989974 3.701049
v -1.866791 0.749849 3.941174
v -1.986853 0.957803 3.821111
v -1.898961 0.869911 3.909003
v -2.106915 0.989973 -2.253463
v -1.866791 0.749848 -2.493587
v -1.986853 0.957802 -2.373525
v -1.898961 0.869910 -2.461417
v -3.864578 0.000001 3.941174
v -4.003263 0.000001 3.802488
v -3.933920 0.000001 3.922593
v -3.984683 0.000001 3.871830
v -4.003263 0.749849 3.802488
v -3.864578 0.749849 3.941174
v -3.971106 0.869864 3.909016
v -3.984683 0.749849 3.871830
v -3.933920 0.749849 3.922593
vn -0.0000 1.0000 -0.0000
vn 1.0000 -0.0000 -0.0000
vn -0.0000 0.2588 0.9659
vn -0.0000 -0.0000 1.0000
vn -0.0000 -0.0000 -1.0000
vn -0.2588 0.9659 -0.0000
vn -0.7071 0.7071 -0.0000
vn -0.0000 0.9659 -0.2588
vn -0.0000 0.7071 -0.7071
vn -0.0000 0.2588 -0.9659
vn 0.2588 0.9659 -0.0000
vn 0.7071 0.7071 -0.0000
vn 0.9659 0.2588 -0.0000
vn -0.0000 0.9659 0.2588
vn -0.0000 0.7071 0.7071
vn -0.9659 0.2588 -0.0000
vn -1.0000 -0.0000 -0.0000
vn -0.9655 0.0291 0.2587
vn -0.7004 -0.1378 0.7004
vn -0.2587 0.0291 0.9655
vn -0.9659 -0.0000 0.2588
vn -0.7071 -0.0000 0.7071
vn -0.2588 -0.0000 0.9659
vn -0.0000 -1.0000 -0.0000
vt 0.653098 0.509329
vt 0.846902 0.509329
vt 0.846902 0.740671
vt 0.653098 0.740671
vt 0.375000 0.500000
vt 0.564361 0.500000
vt 0.564361 0.750000
vt 0.375000 0.750000
vt 0.594680 0.753765
vt 0.594680 0.996236
vt 0.594669 0.996237
vt 0.564361 0.983772
vt 0.375000 0.983772
vt 0.375000 0.250000
vt 0.564361 0.250000
vt 0.860951 0.504665
vt 0.860951 0.745335
vt 0.875000 0.501250
vt 0.875000 0.748750
vt 0.639049 0.504665
vt 0.628764 0.500000
vt 0.871236 0.500000
vt 0.594680 0.253764
vt 0.594680 0.496236
vt 0.639049 0.745335
vt 0.594680 0.748750
vt 0.594680 0.501250
vt 0.871235 0.750000
vt 0.628764 0.750000
vt 0.594680 0.001250
vt 0.594680 0.248750
vt 0.564361 0.005388
vt 0.594669 0.001249
vt 0.375000 0.005388
vt 0.564361 0.005388
vt 0.564361 0.002694
vt 0.594669 0.001249
vt 0.569563 0.000214
vt 0.572567 0.000338
vt 0.375000 0.002694
vt 0.564361 0.002694
vt 0.375000 0.000000
vt 0.564361 0.000000
vt 0.564361 0.991886
vt 0.375000 0.991886
vt 0.125000 0.500000
vt 0.141228 0.750000
vt 0.133114 0.749278
vt 0.127174 0.747306
vt 0.125000 0.744612
s 1
usemtl Material.001
f 83/134/61 75/135/61 72/136/61 79/137/61
f 71/138/62 84/139/62 80/140/62 70/141/62
f 82/142/63 74/143/63 93/144/63 92/145/63 80/140/63
f 70/141/64 80/140/64 92/145/64 87/146/64
f 69/147/65 76/148/65 84/139/65 71/138/65
f 72/136/66 75/135/66 77/149/66 73/150/66
f 73/150/67 77/149/67 78/151/67 74/152/67
f 75/135/68 83/134/68 85/153/68 77/149/68
f 77/149/69 85/153/69 86/154/69 78/155/69
f 78/156/70 86/157/70 84/139/70 76/148/70
f 83/134/71 79/137/71 81/158/71 85/153/71
f 85/153/72 81/158/72 82/159/72 86/160/72
f 86/160/73 82/159/73 80/140/73 84/139/73
f 79/137/74 72/136/74 73/150/74 81/158/74
f 81/158/75 73/150/75 74/161/75 82/162/75
f 74/163/76 78/164/76 76/148/76 91/165/76 93/166/76
f 88/167/77 91/168/77 76/148/77 69/147/77
f 91/165/78 94/169/78 93/170/78
f 94/169/79 95/171/79 93/170/79
f 95/171/80 92/172/80 93/170/80
f 91/168/81 88/167/81 90/173/81 94/174/81
f 94/174/82 90/173/82 89/175/82 95/176/82
f 95/177/83 89/178/83 87/146/83 92/145/83
f 69/179/84 71/138/84 70/141/84 87/180/84 89/181/84 90/182/84 88/183/84
o Cube.003
v -2.450282 0.997681 4.034887
v -3.120063 0.997680 -2.364920
v -0.325414 0.997681 3.812506
v -0.995195 0.997680 -2.587301
v -2.236455 1.987654 3.771073
v -2.450282 1.747530 4.034887
v -2.343369 1.955484 3.902980
v -2.421635 1.867592 3.999543
v -2.856248 1.987653 -2.151094
v -3.120063 1.747529 -2.364920
v -2.988156 1.955483 -2.258007
v -3.084718 1.867591 -2.336273
v -0.589229 1.987654 3.598680
v -0.325414 1.747530 3.812506
v -0.457322 1.955484 3.705593
v -0.360759 1.867592 3.783859
v -1.209022 1.987653 -2.323487
v -0.995195 1.747529 -2.587301
v -1.102108 1.955483 -2.455394
v -1.023843 1.867591 -2.551957
vn -0.0000 1.0000 -0.0000
vn 0.9946 -0.0000 -0.1041
vn -0.9946 -0.0000 0.1041
vn -0.0000 -1.0000 -0.0000
vn -0.1041 -0.0000 -0.9946
vn -0.2574 0.9659 0.0269
vn -0.7033 0.7071 0.0736
vn -0.9607 0.2588 0.1005
vn -0.0269 0.9659 -0.2574
vn -0.0736 0.7071 -0.7033
vn -0.1005 0.2588 -0.9607
vn 0.2574 0.9659 -0.0269
vn 0.7033 0.7071 -0.0736
vn 0.9607 0.2588 -0.1005
vn 0.0269 0.9659 0.2574
vn 0.0736 0.7071 0.7033
vn 0.1005 0.2588 0.9607
vn 0.1041 -0.0000 0.9946
vt 0.653098 0.509329
vt 0.846902 0.509329
vt 0.846902 0.740671
vt 0.653098 0.740671
vt 0.375000 0.500000
vt 0.564361 0.500000
vt 0.564361 0.750000
vt 0.375000 0.750000
vt 0.375000 0.000000
vt 0.564361 0.000000
vt 0.564361 0.250000
vt 0.375000 0.250000
vt 0.125000 0.500000
vt 0.125000 0.750000
vt 0.860951 0.504665
vt 0.860951 0.745335
vt 0.875000 0.501250
vt 0.875000 0.748750
vt 0.594680 0.001250
vt 0.594680 0.248750
vt 0.639049 0.504665
vt 0.628764 0.500000
vt 0.871236 0.500000
vt 0.594680 0.253764
vt 0.594680 0.496236
vt 0.639049 0.745335
vt 0.594680 0.748750
vt 0.594680 0.501250
vt 0.871235 0.750000
vt 0.628764 0.750000
vt 0.594680 0.753765
vt 0.594680 0.996236
vt 0.564361 1.000000
vt 0.375000 1.000000
s 1
usemtl Material.001
f 112/184/85 104/185/85 100/186/85 108/187/85
f 99/188/86 113/189/86 109/190/86 98/191/86
f 96/192/87 101/193/87 105/194/87 97/195/87
f 97/196/88 99/188/88 98/191/88 96/197/88
f 97/195/89 105/194/89 113/189/89 99/188/89
f 100/186/90 104/185/90 106/198/90 102/199/90
f 102/199/91 106/198/91 107/200/91 103/201/91
f 103/202/92 107/203/92 105/194/92 101/193/92
f 104/185/93 112/184/93 114/204/93 106/198/93
f 106/198/94 114/204/94 115/205/94 107/206/94
f 107/207/95 115/208/95 113/189/95 105/194/95
f 112/184/96 108/187/96 110/209/96 114/204/96
f 114/204/97 110/209/97 111/210/97 115/211/97
f 115/211/98 111/210/98 109/190/98 113/189/98
f 108/187/99 100/186/99 102/199/99 110/209/99
f 110/209/100 102/199/100 103/212/100 111/213/100
f 111/214/101 103/215/101 101/216/101 109/190/101
f 98/191/102 109/190/102 101/216/102 96/217/102
o Cube.004
v -0.297437 0.997681 3.936948
v -0.272139 0.997681 -2.497762
v 1.839019 0.997681 3.945348
v 1.864317 0.997681 -2.489362
v -0.056370 1.987654 3.697769
v -0.297437 1.747529 3.936948
v -0.176903 1.955483 3.817359
v -0.265140 1.867591 3.904905
v -0.032960 1.987654 -2.256695
v -0.272139 1.747529 -2.497762
v -0.152550 1.955483 -2.377228
v -0.240095 1.867592 -2.465465
v 1.599840 1.987654 3.704281
v 1.839019 1.747529 3.945348
v 1.719430 1.955483 3.824814
v 1.806975 1.867591 3.913051
v 1.623250 1.987654 -2.250183
v 1.864317 1.747529 -2.489362
v 1.743783 1.955483 -2.369773
v 1.832020 1.867592 -2.457319
vn -0.0000 1.0000 -0.0000
vn 1.0000 -0.0000 0.0039
vn -1.0000 -0.0000 -0.0039
vn -0.0000 -1.0000 -0.0000
vn 0.0039 -0.0000 -1.0000
vn -0.2588 0.9659 -0.0010
vn -0.7071 0.7071 -0.0028
vn -0.9659 0.2588 -0.0038
vn 0.0010 0.9659 -0.2588
vn 0.0028 0.7071 -0.7071
vn 0.0038 0.2588 -0.9659
vn 0.2588 0.9659 0.0010
vn 0.7071 0.7071 0.0028
vn 0.9659 0.2588 0.0038
vn -0.0010 0.9659 0.2588
vn -0.0028 0.7071 0.7071
vn -0.0038 0.2588 0.9659
vn -0.0039 -0.0000 1.0000
vt 0.653098 0.509329
vt 0.846902 0.509329
vt 0.846902 0.740671
vt 0.653098 0.740671
vt 0.375000 0.500000
vt 0.564361 0.500000
vt 0.564361 0.750000
vt 0.375000 0.750000
vt 0.375000 0.000000
vt 0.564361 0.000000
vt 0.564361 0.250000
vt 0.375000 0.250000
vt 0.125000 0.500000
vt 0.125000 0.750000
vt 0.860951 0.504665
vt 0.860951 0.745335
vt 0.875000 0.501250
vt 0.875000 0.748750
vt 0.594680 0.001250
vt 0.594680 0.248750
vt 0.639049 0.504665
vt 0.628764 0.500000
vt 0.871236 0.500000
vt 0.594680 0.253764
vt 0.594680 0.496236
vt 0.639049 0.745335
vt 0.594680 0.748750
vt 0.594680 0.501250
vt 0.871235 0.750000
vt 0.628764 0.750000
vt 0.594680 0.753765
vt 0.594680 0.996236
vt 0.564361 1.000000
vt 0.375000 1.000000
s 1
usemtl Material.001
f 132/218/103 124/219/103 120/220/103 128/221/103
f 119/222/104 133/223/104 129/224/104 118/225/104
f 116/226/105 121/227/105 125/228/105 117/229/105
f 117/230/106 119/222/106 118/225/106 116/231/106
f 117/229/107 125/228/107 133/223/107 119/222/107
f 120/220/108 124/219/108 126/232/108 122/233/108
f 122/233/109 126/232/109 127/234/109 123/235/109
f 123/236/110 127/237/110 125/228/110 121/227/110
f 124/219/111 132/218/111 134/238/111 126/232/111
f 126/232/112 134/238/112 135/239/112 127/240/112
f 127/241/113 135/242/113 133/223/113 125/228/113
f 132/218/114 128/221/114 130/243/114 134/238/114
f 134/238/115 130/243/115 131/244/115 135/245/115
f 135/245/116 131/244/116 129/224/116 133/223/116
f 128/221/117 120/220/117 122/233/117 130/243/117
f 130/243/118 122/233/118 123/246/118 131/247/118
f 131/248/119 123/249/119 121/250/119 129/224/119
f 118/225/120 129/224/120 121/250/120 116/251/120
o Cube.005
v 1.823600 2.003185 -1.791869
v -0.765425 2.003185 4.099064
v -0.132311 2.003186 -2.651478
v -2.721336 2.003185 3.239455
v 1.507155 2.993158 -1.668652
v 1.823600 2.753034 -1.791869
v 1.665378 2.960988 -1.730261
v 1.781205 2.873096 -1.775361
v -0.888641 2.993158 3.782619
v -0.765425 2.753033 4.099064
v -0.827033 2.960988 3.940842
v -0.781933 2.873096 4.056669
v -0.009094 2.993158 -2.335033
v -0.132311 2.753034 -2.651478
v -0.070702 2.960988 -2.493256
v -0.115803 2.873096 -2.609083
v -2.404891 2.993158 3.116238
v -2.721336 2.753033 3.239455
v -2.563113 2.960988 3.177847
v -2.678940 2.873096 3.222947
vn -0.0000 1.0000 -0.0000
vn -0.9155 -0.0000 -0.4023
vn 0.9155 -0.0000 0.4023
vn -0.0000 -1.0000 -0.0000
vn -0.4023 -0.0000 0.9155
vn 0.2369 0.9659 0.1041
vn 0.6473 0.7071 0.2845
vn 0.8843 0.2588 0.3886
vn -0.1041 0.9659 0.2369
vn -0.2845 0.7071 0.6473
vn -0.3886 0.2588 0.8843
vn -0.2369 0.9659 -0.1041
vn -0.6473 0.7071 -0.2845
vn -0.8843 0.2588 -0.3886
vn 0.1041 0.9659 -0.2369
vn 0.2845 0.7071 -0.6473
vn 0.3886 0.2588 -0.8843
vn 0.4023 -0.0000 -0.9155
vt 0.653098 0.509329
vt 0.846902 0.509329
vt 0.846902 0.740671
vt 0.653098 0.740671
vt 0.375000 0.500000
vt 0.564361 0.500000
vt 0.564361 0.750000
vt 0.375000 0.750000
vt 0.375000 0.000000
vt 0.564361 0.000000
vt 0.564361 0.250000
vt 0.375000 0.250000
vt 0.125000 0.500000
vt 0.125000 0.750000
vt 0.860951 0.504665
vt 0.860951 0.745335
vt 0.875000 0.501250
vt 0.875000 0.748750
vt 0.594680 0.001250
vt 0.594680 0.248750
vt 0.639049 0.504665
vt 0.628764 0.500000
vt 0.871236 0.500000
vt 0.594680 0.253764
vt 0.594680 0.496236
vt 0.639049 0.745335
vt 0.594680 0.748750
vt 0.594680 0.501250
vt 0.871235 0.750000
vt 0.628764 0.750000
vt 0.594680 0.753765
vt 0.594680 0.996236
vt 0.564361 1.000000
vt 0.375000 1.000000
s 1
usemtl Material.001
f 152/252/121 144/253/121 140/254/121 148/255/121
f 139/256/122 153/257/122 149/258/122 138/259/122
f 136/260/123 141/261/123 145/262/123 137/263/123
f 137/264/124 139/256/124 138/259/124 136/265/124
f 137/263/125 145/262/125 153/257/125 139/256/125
f 140/254/126 144/253/126 146/266/126 142/267/126
f 142/267/127 146/266/127 147/268/127 143/269/127
f 143/270/128 147/271/128 145/262/128 141/261/128
f 144/253/129 152/252/129 154/272/129 146/266/129
f 146/266/130 154/272/130 155/273/130 147/274/130
f 147/275/131 155/276/131 153/257/131 145/262/131
f 152/252/132 148/255/132 150/277/132 154/272/132
f 154/272/133 150/277/133 151/278/133 155/279/133
f 155/279/134 151/278/134 149/258/134 153/257/134
f 148/255/135 140/254/135 142/267/135 150/277/135
f 150/277/136 142/267/136 143/280/136 151/281/136
f 151/282/137 143/283/137 141/284/137 149/258/137
f 138/259/138 149/258/138 141/284/138 136/285/138
